<svg height="357" viewBox="0 0 1445 357" width="1445" xmlns="http://www.w3.org/2000/svg"><g fill="none" fill-rule="evenodd" transform="translate(1 1)"><path d="m1156 174v36.349515h-83.11897v41.650485h-57.88103" stroke="#3a3769"/><g stroke="#373363"><circle cx="1156.5" cy="169.5" r="2.5"/><circle cx="1129.5" cy="266.5" r="2.5"/><circle cx="307.5" cy="125.5" r="2.5"/><circle cx="347.5" cy="75.5" r="2.5"/><circle cx="363.5" cy="299.5" r="2.5"/><circle cx="1092.5" cy="184.5" r="2.5"/><circle cx="1062.5" cy="49.5" r="2.5"/><circle cx="1251.5" cy="287.5" r="2.5"/><circle cx="322.5" cy="190.5" r="2.5"/><circle cx="258.5" cy="293.5" r="2.5"/></g><path d="m424 222h-49.545455v-32h-45.454545" stroke="#3a3769"/><path d="m424 274h-120.158571v19h-38.841429" stroke="#3a3769" stroke-width="2"/><g stroke="#3d3c74" transform="translate(1174 84)"><circle cx="14.122792" cy="30.505996" r="9.915159" stroke-width=".99999" transform="matrix(.70710678 -.70710678 .70710678 .70710678 -17.434527 18.921321)"/><circle cx="38.985903" cy="5.641421" r="3.813523" stroke-width=".99999" transform="matrix(.70710678 -.70710678 .70710678 .70710678 7.42962 29.21953)"/><path d="m19.4491525 25.1694915-5.338983 5.3389831"/><path d="m35.1610169 9.45762712-12.4322033 12.35593218"/></g><g stroke="#3d3c74" transform="translate(1014 117)"><ellipse cx="115.05" cy="2.53" rx="2.269231" ry="2.3"/><ellipse cx="87.289744" cy="20.7" rx="2.269231" ry="2.3"/><path d="m.22692308 2.53h35.77820512l17.9269231 18.17h28.4410256"/><path d="m40.3166667 2.53h69.8166663"/></g><g stroke="#3d3c74" transform="translate(225 97)"><ellipse cx="2.829412" cy="2.409412" rx="2.294118" ry="2.258824"/><path d="m26 63.3976471v-38.4l-19.5-19.20000004"/></g><g stroke="#3d3c74" transform="translate(1136 289)"><ellipse cx="23.4" cy="2.736" rx="2.294118" ry="2.28"/><path d="m.22941177 37.772v-12.236l19.50000003-19.38"/></g><path d="m1105 73 26.4623-42 26.5377 42z" stroke="#3a3769" stroke-width="2"/><path d="m316 222-16.461538 26-16.538462-26z" stroke="#3a3769"/><path d="m1076 252h38.7538l11.2462 11" stroke="#3a3769"/><path d="m79.4075419 271h112.1849161l79.407542-79.407542v-112.1849161l-79.407542-79.4075419h-112.1849161l-79.4075419 79.4075419v112.1849161" stroke="#3a3769" stroke-width="2"/><g transform="translate(190 138)"><path d="m13.875 26.85c-7.425 0-13.425-6-13.425-13.425s6-13.425 13.425-13.425 13.425 6 13.425 13.425" stroke="#3d3c74"/><path d="m19.125 18.675h13.725v13.725h-13.725z" stroke="#3d3c74"/><circle cx="25.95" cy="25.575" fill="#3c376e" fill-rule="nonzero" r="2.7"/></g><circle cx="1317" cy="229" r="126" stroke="#3a3769"/><g stroke="#3a3769" transform="translate(198 200)"><path d="m.36363636.58181818 7.27272728 7.27272727"/><path d="m.36363636 7.85454545 2.18181819-2.18181818"/><path d="m5.45454545 2.76363636 2.18181819-2.18181818"/></g><g stroke="#3a3769" transform="translate(1227 218)"><path d="m.07272727 0 7.27272728 8"/><path d="m.07272727 8 2.18181818-2.4"/><path d="m5.16363636 2.4 2.18181819-2.4"/></g><g stroke="#3a3769" transform="translate(1052 287)"><path d="m4.74117647 4.425-1.75882353-1.725"/><path d="m6.34705882 0v3.825"/><path d="m7.87647059 4.425 1.75882353-1.725"/><path d="m12.4647059 6h-3.90000002"/><path d="m4.05294118 6h-3.82352941"/><path d="m9.63529412 9.3-1.75882353-1.725"/><path d="m6.34705882 12v-3.825"/><path d="m4.74117647 7.575-1.75882353 1.725"/></g><g stroke="#373464" transform="translate(394 172)"><path d="m4.425 5.2-1.725-1.75882353"/><path d="m6 .61176471v3.9"/><path d="m7.575 5.2 1.65-1.75882353"/><path d="m12 6.72941176h-3.825"/><path d="m3.825 6.72941176h-3.825"/><path d="m9.225 10.0941176-1.65-1.75882348"/><path d="m6 12.8470588v-3.82352939"/><path d="m4.425 8.33529412-1.725 1.75882348"/></g><path d="m205 283v18.0053l-25 24.9947" stroke="#3a3769"/><path d="m424 106h-45.889117l-28.110883-28" stroke="#3a3769"/></g></svg>